<svg width="48" height="48" viewBox="0 0 48 48" fill="none" xmlns="http://www.w3.org/2000/svg">
<path d="M19.34 23.71L19.22 23.95C18.72 24.92 17.93 25.71 16.96 26.21L16.72 26.33C15.77 26.81 15.77 28.17 16.72 28.66L16.96 28.78C17.93 29.28 18.72 30.07 19.22 31.04L19.34 31.28C19.82 32.23 21.18 32.23 21.67 31.28L21.79 31.04C22.29 30.07 23.08 29.28 24.05 28.78L24.29 28.66C25.24 28.18 25.24 26.82 24.29 26.33L24.05 26.21C23.08 25.71 22.29 24.92 21.79 23.95L21.67 23.71C21.19 22.76 19.83 22.76 19.34 23.71Z" fill="black"/>
<path d="M35 23.5C34.17 23.5 33.5 24.17 33.5 25V30.84C33.5 32.31 32.31 33.5 30.84 33.5H17.15C15.68 33.5 14.49 32.31 14.49 30.84V17.15C14.49 15.68 15.68 14.49 17.15 14.49H22.99C23.82 14.49 24.49 13.82 24.49 12.99C24.49 12.16 23.82 11.49 22.99 11.49H17.15C14.03 11.49 11.49 14.03 11.49 17.15V30.84C11.49 33.96 14.03 36.5 17.15 36.5H30.84C33.96 36.5 36.5 33.96 36.5 30.84V25C36.5 24.17 35.83 23.5 35 23.5Z" fill="black"/>
<path d="M43 18.44C43.55 18.44 44 17.99 44 17.44V16.44C44 15.89 43.55 15.44 43 15.44H40.36C39.7 11.45 36.55 8.3 32.56 7.64V5C32.56 4.45 32.11 4 31.56 4H30.56C30.01 4 29.56 4.45 29.56 5V7.5H27.85V5C27.85 4.45 27.4 4 26.85 4H25.85C25.3 4 24.85 4.45 24.85 5V7.5H23.14V5C23.14 4.45 22.69 4 22.14 4H21.14C20.59 4 20.14 4.45 20.14 5V7.5H18.43V5C18.43 4.45 17.98 4 17.43 4H16.43C15.88 4 15.43 4.45 15.43 5V7.64C11.44 8.3 8.29 11.45 7.63 15.44H4.99C4.44 15.44 3.99 15.89 3.99 16.44V17.44C3.99 17.99 4.44 18.44 4.99 18.44H7.49V20.15H4.99C4.44 20.15 3.99 20.6 3.99 21.15V22.15C3.99 22.7 4.44 23.15 4.99 23.15H7.49V24.86H4.99C4.44 24.86 3.99 25.31 3.99 25.86V26.86C3.99 27.41 4.44 27.86 4.99 27.86H7.49V29.57H4.99C4.44 29.57 3.99 30.02 3.99 30.57V31.57C3.99 32.12 4.44 32.57 4.99 32.57H7.63C8.29 36.56 11.44 39.71 15.43 40.37V43.01C15.43 43.56 15.88 44.01 16.43 44.01H17.43C17.98 44.01 18.43 43.56 18.43 43.01V40.51H20.14V43.01C20.14 43.56 20.59 44.01 21.14 44.01H22.14C22.69 44.01 23.14 43.56 23.14 43.01V40.51H24.85V43.01C24.85 43.56 25.3 44.01 25.85 44.01H26.85C27.4 44.01 27.85 43.56 27.85 43.01V40.51H29.56V43.01C29.56 43.56 30.01 44.01 30.56 44.01H31.56C32.11 44.01 32.56 43.56 32.56 43.01V40.37C36.55 39.71 39.7 36.56 40.36 32.57H43C43.55 32.57 44 32.12 44 31.57V30.57C44 30.02 43.55 29.57 43 29.57H40.5V27.86H43C43.55 27.86 44 27.41 44 26.86V25.86C44 25.31 43.55 24.86 43 24.86H40.5V23.15H43C43.55 23.15 44 22.7 44 22.15V21.15C44 20.6 43.55 20.15 43 20.15H40.5V18.44H43ZM37.5 31C37.5 34.58 34.58 37.5 31 37.5H17C13.42 37.5 10.5 34.58 10.5 31V17C10.5 13.42 13.42 10.5 17 10.5H31C34.58 10.5 37.5 13.42 37.5 17V31Z" fill="black"/>
<path d="M34.58 16.22L34.26 16.06C33.26 15.55 32.46 14.75 31.95 13.75L31.79 13.43C31.24 12.35 30.14 11.68 28.93 11.68C27.72 11.68 26.62 12.35 26.06 13.43L25.9 13.75C25.39 14.75 24.59 15.55 23.59 16.06L23.27 16.22C22.19 16.77 21.52 17.87 21.52 19.08C21.52 20.29 22.19 21.39 23.27 21.95L23.59 22.11C24.59 22.62 25.39 23.42 25.9 24.42L26.06 24.74C26.61 25.82 27.71 26.49 28.93 26.49C30.15 26.49 31.24 25.82 31.8 24.74L31.96 24.42C32.47 23.42 33.27 22.62 34.27 22.11L34.59 21.95C35.67 21.4 36.34 20.3 36.34 19.08C36.34 17.86 35.67 16.77 34.59 16.21L34.58 16.22ZM33.22 19.28L32.9 19.44C31.33 20.24 30.08 21.49 29.28 23.06L29.12 23.38C29.12 23.38 29.06 23.5 28.93 23.5C28.8 23.5 28.75 23.41 28.74 23.38L28.58 23.06C27.78 21.49 26.53 20.24 24.96 19.44L24.64 19.28C24.64 19.28 24.52 19.22 24.52 19.09C24.52 18.96 24.61 18.91 24.64 18.9L24.96 18.74C26.53 17.94 27.78 16.69 28.58 15.12L28.74 14.8C28.74 14.8 28.8 14.68 28.93 14.68C29.06 14.68 29.11 14.76 29.12 14.8L29.28 15.12C30.08 16.69 31.33 17.94 32.9 18.74L33.22 18.9C33.22 18.9 33.34 18.96 33.34 19.09C33.34 19.22 33.25 19.27 33.22 19.28Z" fill="black"/>
</svg>
